HIERARCHY
ROOT Hips
{
	OFFSET 0.000000 0.000000 0.000000
	CHANNELS 6 Xposition Yposition Zposition Zrotation Yrotation Xrotation 
	JOINT LHipJoint
	{
		OFFSET 0.000000 0.000000 0.000000
		CHANNELS 3 Zrotation Yrotation Xrotation
		JOINT LeftUpLeg
		{
			OFFSET 1.363060 -1.794630 0.839290
			CHANNELS 3 Zrotation Yrotation Xrotation
			JOINT LeftLeg
			{
				OFFSET 2.448110 -6.726130 0.000000
				CHANNELS 3 Zrotation Yrotation Xrotation
				JOINT LeftFoot
				{
					OFFSET 2.562200 -7.039590 0.000000
					CHANNELS 3 Zrotation Yrotation Xrotation
					JOINT LeftToeBase
					{
						OFFSET 0.157640 -0.433110 2.322550
						CHANNELS 3 Zrotation Yrotation Xrotation
						End Site
						{
							OFFSET 0.000000 0.000000 0.000000
						}
					}
				}
			}
		}
	}
	JOINT RHipJoint
	{
		OFFSET 0.000000 0.000000 0.000000
		CHANNELS 3 Zrotation Yrotation Xrotation
		JOINT RightUpLeg
		{
			OFFSET -1.305520 -1.794630 0.839290
			CHANNELS 3 Zrotation Yrotation Xrotation
			JOINT RightLeg
			{
				OFFSET -2.542530 -6.985550 0.000000
				CHANNELS 3 Zrotation Yrotation Xrotation
				JOINT RightFoot
				{
					OFFSET -2.568260 -7.056230 0.000000
					CHANNELS 3 Zrotation Yrotation Xrotation
					JOINT RightToeBase
					{
						OFFSET -0.164730 -0.452590 2.363150
						CHANNELS 3 Zrotation Yrotation Xrotation
						End Site
						{
							OFFSET 0.000000 0.000000 0.000000
						}
					}
				}
			}
		}
	}
}
MOTION
Frames: 27
Frame Time: 0.008333
-1.537436 17.014533 -0.588308 171.928330 83.553183 179.682937 -9.456585 1.955129 2.482966 -18.947129 4.699176 -29.111783 -3.009446 -0.405254 10.430656 1.042947 6.683334 -0.235081 1.224500 0.000000 -5.447800 10.912805 -3.645539 -0.993332 -0.407559 -11.933361 -1.913122 0.002783 -2.664084 38.171160 0.189158 9.222326 15.222765 3.440300 0.000000 -77.997201
-1.399207 17.034779 -0.644522 170.787195 83.393934 178.514141 -9.421449 2.005071 2.448613 -19.175498 4.680120 -28.253115 -3.036866 -0.443648 10.246840 1.048742 6.646417 -0.745696 1.142700 -0.000000 -5.303300 11.070637 -3.539575 -1.028274 -0.831097 -12.044400 -3.384269 -0.246287 -2.789249 41.052952 -0.003841 8.733553 17.009820 3.605200 0.000000 -76.203100
-1.264387 17.053798 -0.700923 169.808221 83.250042 177.504083 -9.402062 2.050922 2.385093 -19.418428 4.831924 -27.410273 -3.075912 -0.483975 10.001542 1.031004 6.479170 -1.178725 1.052900 -0.000000 -5.357400 11.204725 -3.423040 -1.050318 -1.169341 -12.059576 -4.876126 -0.468533 -2.903503 43.892356 -0.207383 7.908392 18.456100 3.555400 0.000000 -74.213201
-1.132626 17.071784 -0.756985 168.891347 83.117376 176.545548 -9.394239 2.096536 2.295682 -19.676706 5.133559 -26.568077 -3.126132 -0.525462 9.688421 0.990114 6.186421 -1.520564 0.960700 0.000001 -5.555500 11.319960 -3.296306 -1.065024 -1.444382 -11.998374 -6.366519 -0.667224 -3.011473 46.660763 -0.415692 6.745367 19.507070 3.270999 0.000000 -72.225500
-1.003401 17.089035 -0.813038 168.157749 82.986472 175.763654 -9.400779 2.140576 2.187223 -19.926249 5.563390 -25.744933 -3.183982 -0.566409 9.333467 0.926811 5.765005 -1.781293 0.866200 -0.000000 -5.846900 11.413760 -3.166305 -1.071589 -1.638016 -11.868184 -7.850990 -0.845300 -3.116745 49.331239 -0.625422 5.253162 20.127651 2.754301 0.000000 -70.358101
-0.876337 17.105742 -0.869045 167.607951 82.847155 175.158588 -9.419146 2.182955 2.066950 -20.156088 6.078860 -24.932988 -3.245938 -0.606760 8.942001 0.846229 5.240582 -1.969671 0.772800 0.000000 -6.182599 11.489067 -3.034597 -1.073717 -1.758682 -11.685525 -9.318028 -1.006658 -3.221541 51.879930 -0.834197 3.481123 20.302036 2.043400 -0.000000 -68.647000
-0.751213 17.122061 -0.925039 167.257030 82.688226 174.745361 -9.446959 2.222426 1.942222 -20.354264 6.632274 -24.121995 -3.307677 -0.646812 8.519414 0.755075 4.648153 -2.099765 0.683200 0.000000 -6.524200 11.548280 -2.902396 -1.074916 -1.813578 -11.465124 -10.757012 -1.154014 -3.326918 54.283792 -1.040127 1.504239 20.036355 1.201400 0.000000 -67.058600
-0.627675 17.138105 -0.981297 167.170916 82.498300 174.596812 -9.483243 2.256581 1.821780 -20.505128 7.175611 -23.313027 -3.364547 -0.687079 8.076883 0.660110 4.022992 -2.191612 0.598800 0.000000 -6.846400 11.591810 -2.772269 -1.075555 -1.799104 -11.215865 -12.167047 -1.288340 -3.432492 56.520971 -1.241260 -0.586978 19.360632 0.305400 0.000000 -65.517000
-0.505620 17.153888 -1.037928 167.353562 82.268372 174.718643 -9.525300 2.283916 1.711647 -20.601602 7.665038 -22.495083 -3.412775 -0.728324 7.616165 0.568004 3.404939 -2.261064 0.521900 0.000000 -7.137700 11.621615 -2.644623 -1.077342 -1.723049 -10.946384 -13.541204 -1.409656 -3.537145 58.570872 -1.434744 -2.688172 18.328370 -0.563000 0.000000 -63.939300
-0.384898 17.169346 -1.095066 167.811950 81.991475 175.122640 -9.571112 2.303081 1.616821 -20.638083 8.066280 -21.664038 -3.449544 -0.771179 7.140097 0.483697 2.825679 -2.322570 0.453700 0.000000 -7.399500 11.638783 -2.520251 -1.079912 -1.589572 -10.660462 -14.877184 -1.516936 -3.638875 60.415361 -1.616898 -4.698666 17.014717 -1.333700 -0.000000 -62.257300
-0.265454 17.184371 -1.152774 168.522148 81.663911 175.788052 -9.618627 2.313733 1.539761 -20.614321 8.359025 -20.816762 -3.473461 -0.815906 6.649778 0.410207 2.307567 -2.385648 0.395000 0.000000 -7.643400 11.644598 -2.399211 -1.082125 -1.406231 -10.359011 -16.172841 -1.608857 -3.735171 62.039809 -1.783169 -6.529364 15.509989 -1.957199 -0.000000 -60.436300
-0.147200 17.198822 -1.211070 169.450052 81.284703 176.685631 -9.666326 2.316430 1.481840 -20.533893 8.536270 -19.959176 -3.484622 -0.862269 6.149520 0.348343 1.859145 -2.455943 0.345400 0.000000 -7.886401 11.639934 -2.281614 -1.080846 -1.178754 -10.039668 -17.431096 -1.684200 -3.823139 63.434909 -1.928725 -8.112727 13.910930 -2.410600 0.000000 -58.484601
-0.030189 17.212512 -1.269755 170.516975 80.856720 177.734660 -9.712929 2.312595 1.439655 -20.405326 8.606922 -19.087055 -3.484363 -0.909609 5.636725 0.297238 1.478970 -2.531349 0.304200 0.000000 -8.146800 11.626334 -2.166041 -1.075411 -0.922044 -9.700595 -18.645433 -1.742310 -3.900520 64.594395 -2.048693 -9.402640 12.308923 -2.694900 0.000000 -56.437200
0.085882 17.225305 -1.328617 171.667756 80.381817 178.889639 -9.757483 2.304584 1.413884 -20.240593 8.583789 -18.225509 -3.475583 -0.956817 5.125701 0.254426 1.151117 -2.612323 0.269500 0.000000 -8.434700 11.604467 -2.052293 -1.059488 -0.641803 -9.337101 -19.830490 -1.783014 -3.964595 65.519992 -2.139668 -10.381635 10.781873 -2.831400 -0.000000 -54.359400
0.200449 17.236947 -1.387545 172.828603 79.872280 -179.945698 -9.802191 2.292949 1.391206 -20.043665 8.505778 -17.341081 -3.459625 -1.002898 4.596887 0.216621 0.857613 -2.683684 0.239600 0.000001 -8.773200 11.574901 -1.938867 -1.038612 -0.358422 -8.946026 -20.951397 -1.806720 -4.015160 66.206236 -2.199365 -11.049751 9.393968 -2.850800 0.000000 -52.431600
0.314259 17.247420 -1.446031 173.951708 79.327056 -178.795533 -9.845051 2.281223 1.377873 -19.833918 8.382818 -16.490023 -3.441294 -1.046587 4.084280 0.180586 0.571988 -2.750272 0.212200 -0.000000 -9.147000 11.538470 -1.826080 -1.001234 -0.072213 -8.523170 -22.048134 -1.814187 -4.050113 66.667030 -2.227986 -11.429400 8.174908 -2.786900 0.000001 -50.686500
0.427245 17.256645 -1.503842 174.992777 78.754019 -177.712088 -9.887106 2.270252 1.367199 -19.618665 8.241708 -15.666967 -3.422727 -1.087052 3.586994 0.143471 0.274393 -2.804370 0.185700 -0.000000 -9.552200 11.495657 -1.713304 -0.948396 0.204530 -8.066009 -23.110127 -1.806283 -4.069998 66.907108 -2.227094 -11.551515 7.135914 -2.668500 0.000000 -49.235200
0.539487 17.264638 -1.560682 175.925100 78.158268 -176.722096 -9.928395 2.260809 1.356933 -19.405524 8.097784 -14.880962 -3.405943 -1.123688 3.113901 0.103469 -0.049742 -2.844542 0.158900 0.000001 -9.972500 11.446940 -1.600403 -0.878681 0.464320 -7.572644 -24.139939 -1.783808 -4.075473 66.935021 -2.199854 -11.455212 6.265173 -2.517699 0.000000 -48.130500
0.651157 17.271422 -1.616306 176.735469 77.543154 -175.837731 -9.968456 2.253131 1.346402 -19.200327 7.956594 -14.138854 -3.392136 -1.156234 2.674051 0.060021 -0.406651 -2.873275 0.131400 -0.000001 -10.386800 11.392692 -1.487319 -0.791349 0.701939 -7.042245 -25.141191 -1.747385 -4.067645 66.760510 -2.150465 -11.183239 5.532932 -2.349300 -0.000000 -47.381900
0.762361 17.277107 -1.670552 177.422376 76.911021 -175.059312 -10.006411 2.246915 1.336478 -19.006764 7.814941 -13.446435 -3.381573 -1.184726 2.276150 0.013905 -0.792582 -2.896429 0.103200 0.000000 -10.772100 11.333129 -1.374035 -0.686022 0.913681 -6.474697 -26.117783 -1.697439 -4.047723 66.393026 -2.083729 -10.778909 4.900378 -2.172700 0.000000 -46.957200
0.873150 17.281820 -1.723379 177.999493 76.263627 -174.373589 -10.041941 2.240967 1.327413 -18.823311 7.664468 -12.802804 -3.373336 -1.209212 1.925864 -0.033196 -1.196527 -2.921706 0.075001 -0.000000 -11.108700 11.267794 -1.260479 -0.564316 1.098787 -5.870206 -27.069026 -1.634043 -4.017032 65.839620 -2.004554 -10.283602 4.327454 -1.993899 0.000000 -46.793800
0.983556 17.285677 -1.774794 178.481011 75.601401 -173.766176 -10.074238 2.234137 1.320989 -18.648635 7.491209 -12.207342 -3.366143 -1.229945 1.628855 -0.078936 -1.601374 -2.959442 0.047999 0.000000 -11.381100 11.196220 -1.146654 -0.427346 1.256863 -5.229529 -27.995649 -1.557334 -3.976584 65.107185 -1.917761 -9.735209 3.779523 -1.817900 -0.000000 -46.813000
1.093599 17.288836 -1.824896 178.883702 74.924325 -173.218570 -10.102509 2.225353 1.319612 -18.480857 7.279679 -11.660277 -3.358588 -1.247284 1.390193 -0.120894 -1.988154 -3.020653 0.023400 -0.000000 -11.580400 11.117806 -1.032628 -0.275812 1.388033 -4.553723 -28.899582 -1.467615 -3.926995 64.201652 -1.827884 -9.166858 3.233837 -1.649200 0.000000 -46.937200
1.203175 17.291410 -1.873827 179.229587 74.233088 -172.711276 -10.127045 2.213258 1.323449 -18.314786 7.019580 -11.154806 -3.348863 -1.261377 1.210051 -0.157010 -2.339264 -3.113552 0.002500 -0.000001 -11.708600 11.031490 -0.918735 -0.111851 1.493467 -3.843092 -29.775158 -1.365428 -3.868612 63.126144 -1.738967 -8.606267 2.682863 -1.492600 -0.000000 -47.102600
1.312234 17.293499 -1.921784 179.535174 73.528027 -172.229145 -10.148164 2.196824 1.332503 -18.146127 6.703845 -10.685492 -3.335658 -1.272451 1.087103 -0.185853 -2.641366 -3.244265 -0.013699 -0.000000 -11.776100 10.936454 -0.805449 0.062901 1.573439 -3.098840 -30.618071 -1.251783 -3.801529 61.883683 -1.654470 -8.075021 2.133185 -1.352500 0.000000 -47.268200
1.420654 17.295163 -1.968922 179.815295 72.811267 -171.760977 -10.166731 2.175436 1.345601 -17.970884 6.332594 -10.244605 -3.318031 -1.280654 1.016618 -0.206799 -2.887259 -3.414625 -0.024900 0.000000 -11.802600 10.832048 -0.693624 0.247030 1.627574 -2.321030 -31.421025 -1.128375 -3.725505 60.477226 -1.577153 -7.588975 1.603423 -1.232500 0.000000 -47.417800
1.528340 17.296427 -2.015419 -179.922171 72.085632 -171.302126 -10.183689 2.148958 1.360714 -17.786428 5.911555 -9.824336 -3.295699 -1.286118 0.991533 -0.220040 -3.076412 -3.622151 -0.031300 -0.000000 -11.813000 10.718113 -0.584254 0.439149 1.654287 -1.510904 -32.176901 -0.997352 -3.640309 58.910670 -1.508852 -7.157873 1.118489 -1.135200 -0.000000 -47.556400
